<svg width="41" height="41" viewBox="0 0 41 41" version="1.1" xmlns="http://www.w3.org/2000/svg" xmlns:xlink="http://www.w3.org/1999/xlink">
<g id="Canvas" fill="none">
<g id="Group 78">
<g id="Ellipse 2.1">
<circle cx="20" cy="20" r="20" transform="translate(0.5 0.353516)" fill="#F2F2F2"/>
</g>
<g id="Group 76">
<g id="Ellipse 4">
<g mask="url(#path1_ins)" transform="translate(13.5957 12.8535)">
<ellipse cx="6.90379" cy="2.97352" rx="6.90379" ry="2.97352" stroke-width="4" stroke="#D92F50"/>
</g>
</g>
<g id="Subtract">
<path fill-rule="evenodd" clip-rule="evenodd" d="M 11.0891 2.29578C 9.87599 2.65435 8.43534 2.85693 6.90332 2.85693C 5.37176 2.85693 3.93135 2.65435 2.71835 2.29577C 2.38327 2.19671 2.05779 2.08345 1.74777 1.95557C 1.93444 2.07202 2.15711 2.18857 2.41756 2.30075C 3.51457 2.77326 5.09984 3.09009 6.90332 3.09009C 8.70732 3.09009 10.2928 2.77325 11.39 2.30073C 11.6504 2.18856 11.8731 2.07203 12.0598 1.95558C 11.7497 2.08346 11.4242 2.19672 11.0891 2.29578Z" stroke-width="2" stroke-miterlimit="8" transform="translate(13.5957 17.511)" stroke="#D92F50"/>
</g>
<g id="Subtract_2">
<path fill-rule="evenodd" clip-rule="evenodd" d="M 11.0891 2.29578C 9.87599 2.65435 8.43534 2.85693 6.90332 2.85693C 5.37176 2.85693 3.93135 2.65435 2.71835 2.29577C 2.38327 2.19671 2.05779 2.08345 1.74777 1.95557C 1.93444 2.07202 2.15711 2.18857 2.41756 2.30075C 3.51457 2.77326 5.09984 3.09009 6.90332 3.09009C 8.70732 3.09009 10.2928 2.77325 11.39 2.30073C 11.6504 2.18856 11.8731 2.07203 12.0598 1.95558C 11.7497 2.08346 11.4242 2.19672 11.0891 2.29578Z" stroke-width="2" stroke-miterlimit="8" transform="translate(13.5957 20.4724)" stroke="#D92F50"/>
</g>
<g id="Subtract_3">
<path fill-rule="evenodd" clip-rule="evenodd" d="M 11.0891 2.29578C 9.87599 2.65435 8.43534 2.85693 6.90332 2.85693C 5.37176 2.85693 3.93135 2.65435 2.71835 2.29577C 2.38368 2.19684 2.0586 2.08373 1.74893 1.95605C 1.93536 2.07226 2.15765 2.18856 2.41756 2.3005C 3.51457 2.77301 5.09984 3.08984 6.90332 3.08984C 8.70732 3.08984 10.2928 2.773 11.39 2.30049C 11.6499 2.18855 11.8722 2.07226 12.0586 1.95606C 11.7489 2.08374 11.4238 2.19685 11.0891 2.29578Z" stroke-width="2" stroke-miterlimit="8" transform="translate(13.5957 23.7637)" stroke="#D92F50"/>
</g>
</g>
</g>
</g>
<defs>

<mask id="path1_ins" fill="white">
<ellipse cx="6.90379" cy="2.97352" rx="6.90379" ry="2.97352"/>
</mask>

</defs>
</svg>

