<svg width="41" height="41" viewBox="0 0 41 41" version="1.1" xmlns="http://www.w3.org/2000/svg" xmlns:xlink="http://www.w3.org/1999/xlink">
<g id="Canvas" fill="none">
<g id="Group 74">
<g id="Ellipse">
<circle cx="20" cy="20" r="20" transform="translate(0.433594 0.523926)" fill="#F2F2F2"/>
</g>
<g id="?">
<path d="M 6.53275 11.1715L 3.95003 11.1715C 3.94328 10.8001 3.93991 10.5739 3.93991 10.4929C 3.93991 9.65564 4.07833 8.96691 4.35517 8.42674C 4.63201 7.88656 5.18569 7.27887 6.01621 6.60365C 6.84672 5.92843 7.34301 5.48616 7.50506 5.27684C 7.7549 4.94598 7.87981 4.58136 7.87981 4.18298C 7.87981 3.6293 7.65699 3.15665 7.21134 2.76502C 6.77245 2.36664 6.17826 2.16745 5.42876 2.16745C 4.70628 2.16745 4.10196 2.3734 3.6158 2.78528C 3.12964 3.19716 2.79541 3.82512 2.6131 4.66914L 0 4.34504C 0.0742741 3.13639 0.587441 2.11006 1.5395 1.26604C 2.49831 0.422012 3.75422 0 5.30722 0C 6.94126 0 8.24105 0.428764 9.20662 1.28629C 10.1722 2.13707 10.655 3.12964 10.655 4.26401C 10.655 4.89196 10.476 5.48616 10.1182 6.04659C 9.76705 6.60702 9.0108 7.37002 7.84943 8.33558C 7.24848 8.83525 6.87373 9.237 6.72519 9.54085C 6.58339 9.8447 6.51924 10.3883 6.53275 11.1715ZM 3.95003 15L 3.95003 12.1539L 6.79608 12.1539L 6.79608 15L 3.95003 15Z" transform="translate(14.751 13.5239)" fill="#D92F50"/>
</g>
</g>
</g>
</svg>

