<svg width="41" height="41" viewBox="0 0 41 41" version="1.1" xmlns="http://www.w3.org/2000/svg" xmlns:xlink="http://www.w3.org/1999/xlink">
<g id="Canvas" fill="none">
<g id="Group 79">
<g id="Ellipse">
<circle cx="20" cy="20" r="20" transform="translate(0.5 0.108887)" fill="#F2F2F2"/>
</g>
<g id="Group 77">
<g id="Polygon">
<path d="M 0.915157 0.623189C 1.00092 -0.20773 2.59704 -0.20773 2.6828 0.623189L 3.59517 9.463C 3.63575 9.8562 3.22841 10.1923 2.71135 10.1923L 0.886612 10.1923C 0.369552 10.1923 -0.0377925 9.8562 0.00278985 9.463L 0.915157 0.623189Z" transform="matrix(0.707107 0.707107 -0.707107 0.707107 25.7363 12.5037)" fill="#D92F50"/>
</g>
<g id="Subtract">
<path fill-rule="evenodd" clip-rule="evenodd" d="M 12.252 1.22241C 11.0205 0.447998 9.5625 0 8 0C 3.58203 0 0 3.58179 0 8C 0 9.3855 0.351562 10.6887 0.97168 11.825L 3.37695 11.825C 2.5166 10.7866 2 9.45361 2 8C 2 4.68628 4.68652 2 8 2C 8.93262 2 9.81641 2.21289 10.6035 2.59277L 12.252 1.22241ZM 13.4531 5.49414C 13.8037 6.25659 14 7.10547 14 8C 14 9.45361 13.4834 10.7866 12.623 11.825L 15.0283 11.825C 15.6484 10.6887 16 9.3855 16 8C 16 6.47437 15.5732 5.04858 14.832 3.83545L 13.4531 5.49414Z" transform="translate(12.5 12.2842)" fill="#D92F50"/>
</g>
<g id="Ellipse 4.1">
<g mask="url(#path3_ins)" transform="translate(18.5293 18.3135)">
<circle cx="1.97081" cy="1.97081" r="1.97081" stroke-width="4" stroke="#D92F50"/>
</g>
</g>
</g>
</g>
</g>
<defs>

<mask id="path3_ins" fill="white">
<circle cx="1.97081" cy="1.97081" r="1.97081"/>
</mask>

</defs>
</svg>

